<svg xmlns="http://www.w3.org/2000/svg"  viewBox="0 0 48 48" width="100px" height="100px"><path fill="#e64a19" d="M23.986,3.998l2-2h11l4,4v4c0,0-1.538-0.01-2.161-1.174c-0.266-0.498-0.765-0.826-1.329-0.826h0 c-1.117,0-1.843,1.183-1.335,2.178c1.745,3.412,6.824,4.822,6.824,4.822s0,5,0,8c0,12-19,23-19,23h0.028c0,0-19-11-19-23 c0-3,0-8,0-8s5.08-1.41,6.824-4.822c0.508-0.994-0.218-2.178-1.335-2.178h0c-0.564,0-1.063,0.329-1.329,0.826 C8.552,9.988,7.014,9.998,7.014,9.998v-4l4-4h11l2,2H23.986z"/><path fill="none" stroke="#bf360c" stroke-miterlimit="10" stroke-width="2" d="M24,42.466 C18.443,38.882,8.014,30.587,8.014,22.998v-5.915c2.064-0.911,5.016-2.647,6.495-5.541c0.718-1.405,0.654-3.048-0.169-4.394 c-0.552-0.901-1.377-1.561-2.337-1.896l0.254-0.254h8.515L24,8.227l3.229-3.229h8.515l0.254,0.254 c-0.959,0.336-1.785,0.995-2.337,1.896c-0.824,1.346-0.887,2.988-0.17,4.392c1.48,2.896,4.432,4.632,6.496,5.543v5.915 C39.986,30.587,29.557,38.882,24,42.466z"/><path fill="#bf360c" d="M21.186,3.998h-9.343L9.761,6.079c0.241-0.054,0.49-0.081,0.742-0.081 c1.227,0,2.342,0.625,2.983,1.673c0.641,1.047,0.69,2.323,0.132,3.415c-1.498,2.93-4.698,4.578-6.605,5.335v6.577 c0,0.334,0.023,0.668,0.057,1.002H24V6.812L21.186,3.998z"/><path fill="#bf360c" d="M34,24h-9h-1v19.639C27.657,41.306,40.029,32.8,40.929,24H34z"/><path fill="#ffcc80" d="M14.117,17.382c0,0-0.536,1.305-0.536,2.726S14,22.204,14,22.204s-2.982,0.909-3.844-2.213 l0.629,0.21l-0.629-3.424c0,0-0.466-0.298-1.466-0.556c-1-0.257-2.494-0.069-2.682-0.673c-0.075-0.296,0-0.475,0-0.475 s-0.396-0.792-0.188-1.366c0,0-0.475-0.267-0.475-1.079s0.505-1.029,0.772-1.029c1.059,0,4.777,2.055,5.293,2.677 S12.396,17.661,14.117,17.382z M26.473,27.633l-0.592-0.412c-1.866,0.254-5.152,1.806-5.152,3.261c0,1.59,1.503,1.765,1.503,1.765 c0.846,0.671,1.576,4.027,1.576,4.027s-4.333-1.094-5.18-0.992c-0.846,0.102-0.54,2.13-0.54,2.13l0.35,0.102v0.7l0.934,0.102 c0.044,0.511,0.35,0.832,0.35,0.832c0.607,0,1.415-1.196,1.415-1.196l4.538-0.657c0.292-0.584,0.175-2.962,0.263-3.691 c0.059-0.491,0.694-0.851,1.102-1.032C26.459,29.636,26.473,27.633,26.473,27.633z M39.931,28.708c0,1.047-0.679,2.214-1.836,2.214 c-2.377,0-3.719-1.907-3.719-1.907s0.353,3.46,0.353,4.919c0,1.459,3.366,2.519,3.366,2.519l-2.189,5.579 c-1.2,0.118-2.872,1.2-3.413,1.2s-0.541-0.306-0.541-0.306l-0.565-0.259c0-1.389,1.365-2.472,1.859-2.472 c0.494,0,0.894,0.777,0.894,0.777h0.377c0.424-0.353,0.541-3.484,0.541-3.484s-1.177-0.518-4.002,0.565 c-3.413,0-3.696-10.734-3.696-10.734c-1.907-1.53-6.114-1.717-6.114-1.717s-1.978,3.456-3.206,3.456s-4.229-2.797-5.093-2.797 S9.697,28.9,8.878,28.9c-0.819,0-0.773-0.364-0.773-0.364s-0.364,0.227-0.364-0.5c0-0.728,0.273-1.341,0.273-1.341 s-1.069,0.705-1.069-0.614s2.001-2.028,2.001-2.028c1.182,0.223,6.594,0.141,6.594,0.141s-1.046-1.432-1.046-3.774 s1.141-4.269,1.141-4.269s-1.019-0.286-1.019-1.019c0-0.733,0.412-1.408,0.412-1.408s-0.034,0.95,1.019,0.95 s3.127-1.181,3.127-1.181c-0.953-0.417-2.364,0.099-2.364,0.099c0-0.576-0.854-1.549-0.854-1.549l0.675-0.377l0.516,0.377h1.847 c-0.199-2.503-2.9-1.39-2.9-1.39l-1.549-1.887l-0.179-1.251c0,0,1.41,0.497,2.642,0c1.231-0.497,1.053-1.43,1.132-1.51 c0.079-0.079,4.866,0,4.866,0l1.966,0.477c1.053-0.238,2.046-1.47,2.046-1.47s0.521,0.545,1.017,1.358 c-0.165,0.737-1.372,1.334-1.372,1.334c0.152,0.508,1.355,2.407,1.355,3.322c0,0.914-1.761,5.557-1.761,6.903 s0.864,1.537,0.864,1.537c-0.292,0.584-1.181,0.241-1.181,0.241l0.008,0.647c1.436,0.565,11.699,12.465,11.699,7.932 c0-3.295-6.92-10.711-6.92-14.7c0-2.825,1.836-3.26,3.319-3.26c0.667,0,1.577,2.919,1.577,2.919s-0.622,1.271-2.071,1.271 c0,0-0.239-1.928-0.748-1.928c-0.218,0-0.429,0.405-0.429,1.975C32.375,18.747,39.931,25.43,39.931,28.708z M20.772,6.883 L18.505,6.99l0.563,1.141L20.772,6.883z"/></svg>