<svg xmlns="http://www.w3.org/2000/svg"  viewBox="0 0 48 48" width="240px" height="240px"><path fill="#6d4c41" d="M25.003,5.943c0,0,2.978-1.941,2.978-3.906c0,0,9.022,3.965,15.022,9.965c0,0-6.251,14-0.774,14 c0.944,0,1.774-1,1.774-1s-2,9-7,14c0,0-9,3-12,7h-0.004c-3-4-12-7-12-7c-5-5-7-14-7-14s0.83,1,1.774,1c5.477,0-0.774-14-0.774-14 c6-6,15.022-9.965,15.022-9.965c0,1.965,2.978,3.906,2.978,3.906H25.003z"/><path fill="none" stroke="#3e2723" stroke-miterlimit="10" stroke-width="2" d="M25.001,41.807 c-3.481-2.771-8.405-4.706-10.33-5.399c-2.079-2.295-3.546-5.453-4.478-7.963c0.739-0.378,1.365-0.944,1.841-1.678 c2.18-3.362,0.16-9.937-1.459-14.005c3.415-2.997,7.486-5.356,10.069-6.709c0.995,1.209,2.177,2.052,2.716,2.402l0.747,0.487h1.783 l0.751-0.487c0.538-0.351,1.719-1.193,2.713-2.4c2.587,1.355,6.664,3.72,10.071,6.708c-1.62,4.068-3.639,10.642-1.459,14.004 c0.476,0.733,1.102,1.3,1.841,1.678c-0.931,2.509-2.399,5.668-4.478,7.963C33.406,37.101,28.482,39.036,25.001,41.807z"/><path fill="#3e2723" d="M25.63,7.993l0.498-0.324c0.424-0.276,1.952-1.335,2.96-2.845 c2.656,1.346,7.622,4.107,11.563,7.715c-1.16,2.818-2.98,7.953-2.544,11.512H25.035V13.462l-2.203-1.488l2.203-1.797V7.993H25.63z"/><path fill="#3e2723" d="M11.23,26.311c0.399-0.616,0.628-1.375,0.732-2.223h13.074v19.103c0,0-0.001,0-0.001,0.001 c-3.474-3.064-9.112-5.207-10.898-5.838c-2.544-2.715-4.227-6.641-5.179-9.407C9.906,27.701,10.691,27.141,11.23,26.311z"/><path fill="#ffe082" d="M24.001,33.823l-2.043,1.675c0,0,5.444-0.046,7.653,1.003c0,0,0.209-0.567,0.089-0.993 c-0.098-0.349-0.491-0.691-0.491-0.691s0.968,0.405,1.38,0.92c0.331-0.371,0.755-2.227-0.626-2.227 C28.584,33.51,26.468,34.099,24.001,33.823z"/><path fill="#ffe082" d="M36.999,13.001c0-1-3-3-3-3c1-1,1-2,1-2c-3,0-5,1-5,1c-5,0-12,3-12,3 c0.216,1.685,3.541,2.976,5.492,2.976c1.95,0,3.184,1.305,3.184,1.305l-1.75,1.42c0,0-2.576-0.225-6.867-0.225 c-4.292,0-6.346,8.217-6.346,14.526c0,10.638,3.069,13.892,4.204,13.892c1.135,0,1.022-0.776,1.022-0.776s-1.533,0.43-1.533-0.91 c0-1.041,0.397-3.082,0.397-3.082l0.511,0.587c0.927-1.911-0.511-5.298-0.511-5.298c1.041,0.227,2.197,2.763,2.197,2.763 s0.225-0.776,2.609-0.776c4.39,0,4.03,2.782,4.03,2.782c0.435-0.208,1.022-0.662,1.022-0.662l0.511,0.53c0,0,1.528,0.17,1.528-2.09 c0-2.098-7.798-2.468-7.798-2.468c0.133-0.675,6.073-5.226,6.073-5.226s-0.326-1.568-0.036-2.834 c0.289-1.266,1.459-2.134,1.459-2.134c-0.374,2.267,1.58,4.04,1.58,4.04l0.338-0.856l2.556,3.726c0,0,0.362-0.494,1.929-0.494 c1.568,0,1.483,1.736,1.483,1.736c1.324-1.521,0.651-3.473,0.651-3.473c-1.013-1.242-3.69,0.169-3.69,0.169l-0.386-0.269 c-0.512-3.217,4.606-14.817,4.923-15.816C37.099,14.063,36.999,13.001,36.999,13.001z M25.254,12.279 c-0.781,0-1.165-0.384-1.165-0.384c-0.013-0.007,0.569-0.748,1.245-0.828c0.675-0.079,1.708,0.093,1.708,0.093 S26.612,12.279,25.254,12.279z"/><path fill="#ffe082" d="M34.964,21.951c0,0-1.586,4.554-1.79,5.574c0,0,2.221,0.499,3.557-0.884l-0.566-0.249 c2.56-1.699,2.808-4.917,4.079-4.917c1.323,0,2.489,0.609,2.456,1.84c0,0,1.001-0.788,0.788-2.085c0,0,0.462,0.522,0.607,1.116 c0,0,0.514-0.607,0.514-1.871l-1.597-1.149l-3.168,0.23C39.843,19.556,37.62,21.917,34.964,21.951z"/></svg>