<svg xmlns="http://www.w3.org/2000/svg"  viewBox="0 0 48 48" width="240px" height="240px"><path fill="#7986cb" d="M42,26.001L42,26c0,0-0.002,0.002-0.002,0.002c-0.076,0.019-8.427,2.092-8.427-2.305 c0-8.639,8.661-12.476,8.661-12.476L25.588,1.985c0,0-0.145,0.371-0.145,0.99c0,0.604,0.434,1.847,0.434,1.847 c0.081,0.588-0.118,1.18-0.54,1.599c-0.368,0.366-0.85,0.549-1.331,0.549s-0.963-0.183-1.331-0.549 c-0.421-0.419-0.621-1.011-0.54-1.599c0,0,0.434-1.243,0.434-1.847c0-0.619-0.145-0.99-0.145-0.99L5.781,11.22 c0,0,8.661,3.837,8.661,12.476c0,4.418-8.434,2.304-8.434,2.304l0.023,0.022C6.017,26.009,6.008,26,6.008,26 s0.516,9.266,8.489,12.614c0,0,7.897,4.303,9.503,7.386h0h0.008h0c1.606-3.083,9.503-7.386,9.503-7.386 c7.947-3.338,8.485-12.548,8.488-12.609L42.005,26C42.005,26,42,26.001,42,26.001z"/><path fill="none" stroke="#3949ab" stroke-miterlimit="10" stroke-width="2" d="M30.571,23.696c0,2.149,1.094,3.943,3.001,4.922 c1.166,0.598,2.59,0.889,4.354,0.888c0.074,0,0.148,0,0.222-0.001c-0.847,2.255-2.519,4.966-5.799,6.344l-0.14,0.059l-0.134,0.072 c-1.447,0.789-5.287,2.982-8.071,5.479c-2.784-2.497-6.625-4.69-8.072-5.479l-0.133-0.072l-0.14-0.059 c-3.278-1.377-4.95-4.087-5.798-6.345c0.075,0.001,0.15,0.002,0.226,0.002c5.423,0,7.355-3.001,7.355-5.81 c0-5.812-3.088-9.805-5.908-12.237l7.991-4.434c0.244,0.563,0.593,1.083,1.037,1.524c0.924,0.916,2.147,1.42,3.446,1.42 s2.522-0.504,3.444-1.418c0.444-0.442,0.794-0.962,1.039-1.526l7.991,4.434"/><path fill="#3949ab" d="M37.925,28.542c-1.578,0-2.889-0.262-3.896-0.778c-1.584-0.812-2.457-2.244-2.457-4.031 c0-0.25,0.016-0.49,0.028-0.732H24v19.862c0.001,0.001,0.003,0.002,0.004,0.004c2.804-2.763,7.442-5.368,8.55-5.972l0.089-0.049 l0.093-0.039c4.35-1.827,6.107-5.742,6.809-8.345C39.03,28.51,38.48,28.542,37.925,28.542z"/><path fill="#3949ab" d="M21.268,7.877c-0.627-0.622-1.018-1.441-1.122-2.305L9.751,11.34 c2.768,2.058,6.377,5.842,6.663,11.66H24v-8.406l1.089-1.234L24,12.791V9.005C22.968,9.004,21.997,8.603,21.268,7.877z"/><path fill="#ffe0b2" d="M41.945,22.519c-0.991,0-5.233-3.646-5.233-3.646s2.782,0.702,3.43,0.702s1.753-0.054,1.753-0.054 c1.003-0.584,2.54-2.413,2.54-2.82c0-0.406-0.229-0.457-0.229-0.457s-0.737,0.813-1.804,0.813c-1.067,0-4.204-1.6-4.204-1.6 l3.468-0.572c1.613-1.893,2.169-4.675,1.998-5.279c-0.171-0.605-0.505-0.513-0.505-0.513c0,3.479-4.612,2.5-4.612,2.5 c1.116-0.835,1.619-1.659,1.619-3.187c0-2.392-1.471-2.049-1.471-2.049s0.269,0.149,0.269,0.977 c-0.073,1.372-5.442,2.67-7.24,3.531c-1.797,0.861-1.661,2.947-1.661,2.947s1.824,0.496,1.649,2.51 c-0.125,1.438-2.664,2.479-4.107,2.958c-0.323-1.29-1.985-2.892-2.208-3.29c-0.252-0.451-0.158-0.901-0.158-0.901l1.518,0.05 l0.322,0.785l0.594-1.194l-0.402-1.047l-4.831-1.748c0,0-3.01,1.672-3.01,2.83c0,0.739,0.379,1.118,0.379,1.118l0.342-0.577 c0,0,1.244,1.84,1.244,2.886c0,0.644-0.093,1.084-0.167,1.347c-0.783-0.215-4.791-1.398-4.949-3.215 c-0.175-2.013,1.649-2.51,1.649-2.51s0.137-2.086-1.661-2.947s-7.167-2.159-7.24-3.531c0-0.828,0.269-0.977,0.269-0.977 S7.827,6.014,7.827,8.406c0,1.528,0.503,2.352,1.619,3.187c0,0-4.612,0.979-4.612-2.5c0,0-0.334-0.091-0.505,0.513 c-0.171,0.605,0.385,3.387,1.998,5.279l3.468,0.572c0,0-3.137,1.6-4.204,1.6c-1.067,0-1.804-0.813-1.804-0.813 s-0.229,0.051-0.229,0.457c0,0.406,1.537,2.236,2.54,2.82c0,0,1.105,0.054,1.753,0.054s3.43-0.702,3.43-0.702 s-4.242,3.646-5.233,3.646c-0.991,0-1.384-0.165-1.384-0.165s-0.406,0.8,2.058,1.766c2.464,0.965,5.906-1.321,5.906-1.321 s-2.488,3.655-3.563,3.655c-0.505,0-1.163-0.098-1.163-0.098s0.477,1.89,2.994,1.89c2.283,0,5.207-3.55,5.207-3.55 s-1.019,5.317-3.638,5.317c0,0-0.205,0.86,1.386,0.86c0.883,0,0.918-0.498,1.418-0.498c0.5,0,0.427,0.107,0.912,0.107 c1.251,0,2.862-4.723,2.862-4.723s-0.766,4.004-1.749,4.769c0,0,0.714,0.199,1.256-0.445c1.076-0.92,1.897-4.581,2.422-4.581 c0.951,0-0.519,7.107-3.95,7.107c-0.829,0-1.343-0.905-2.082-0.905c-0.739,0-0.942,0.623-0.942,1.094 c0,0.471,0.304,0.616,0.304,0.616s0.246-0.681,0.572-0.681c0.326,0,0.507,0.362,0.507,0.362s-0.819-0.109-0.819,0.638 s0.116,0.753,0.116,0.753s0.348-0.565,0.732-0.565s1.174,0.877,1.739,0.877c0.565,0,0.642-0.175,0.642-0.175l0.085,0.175 c0,0-0.545,0.658-0.822,0.658c0,0-0.075,0.267,0.705,0.267s1.196-0.822,1.196-1.079s-0.876-0.491-0.876-0.79 s1.859-0.673,2.745-0.673v1.057c0,0,1.057-0.395,1.335-1.282s1.015-2.051,1.015-2.051s-0.949,4.817-2.541,4.817 c-0.611,0-0.412-1.004-0.412-1.004s-0.599,0.225-0.599,1.255c0,1.03,1.011,1.479,1.461,1.479c0.449,0,1.255-0.861,1.255-0.861 s0.056,1.03,0.393,1.891c0.337,0.861,1.265,3.24,1.265,3.24h0c0,0,0.928-2.378,1.265-3.24c0.337-0.861,0.393-1.891,0.393-1.891 s0.805,0.861,1.255,0.861c0.449,0,1.461-0.449,1.461-1.479c0-1.03-0.599-1.255-0.599-1.255s0.199,1.004-0.412,1.004 c-1.592,0-2.541-4.817-2.541-4.817s0.737,1.164,1.015,2.051s1.335,1.282,1.335,1.282v-1.057c0.887,0,2.745,0.374,2.745,0.673 s-0.876,0.534-0.876,0.79s0.417,1.079,1.196,1.079s0.705-0.267,0.705-0.267c-0.278,0-0.822-0.658-0.822-0.658l0.085-0.175 c0,0,0.077,0.175,0.642,0.175c0.565,0,1.355-0.877,1.739-0.877s0.732,0.565,0.732,0.565s0.116-0.007,0.116-0.753 s-0.819-0.638-0.819-0.638s0.181-0.362,0.507-0.362c0.326,0,0.572,0.681,0.572,0.681s0.304-0.145,0.304-0.616 c0-0.471-0.203-1.094-0.942-1.094c-0.739,0-1.253,0.905-2.082,0.905c-3.431,0-4.901-7.107-3.95-7.107 c0.525,0,1.346,3.661,2.422,4.581c0.542,0.644,1.256,0.445,1.256,0.445c-0.984-0.765-1.749-4.769-1.749-4.769 s1.611,4.723,2.862,4.723c0.485,0,0.411-0.107,0.912-0.107c0.5,0,0.535,0.498,1.418,0.498c1.591,0,1.386-0.86,1.386-0.86 c-2.619,0-3.638-5.317-3.638-5.317s2.923,3.55,5.207,3.55c2.518,0,2.994-1.89,2.994-1.89s-0.658,0.098-1.163,0.098 c-1.075,0-3.563-3.655-3.563-3.655s3.442,2.286,5.906,1.321c2.464-0.965,2.058-1.766,2.058-1.766S42.936,22.519,41.945,22.519z M24.783,13.34l-0.594,0.82l-0.905-1.047L24.783,13.34z"/></svg>