<svg xmlns="http://www.w3.org/2000/svg"  viewBox="0 0 48 48" width="100px" height="100px"><path fill="#26a69a" d="M42,11L25,2l1,4l-2,2l-2-2l1-4L6,11c0,0,7.714,13,4,13c-1.863,0-4-2-4-2s1.027,13.652,9,17l-2,2 c0,0,9.394,1.917,11,5h0c1.606-3.083,11-5,11-5l-2-2c7.973-3.348,9-17,9-17s-2.137,2-4,2C34.286,24,42,11,42,11z"/><path fill="none" stroke="#00695c" stroke-miterlimit="10" stroke-width="2" d="M23.994,42.01 c-1.517-1.018-3.396-1.818-5.206-2.433l1.485-1.484l-4.117-1.729c-3.397-1.427-5.23-5.7-6.19-9.234c0.01,0,0.019,0,0.028,0 c1.46,0,2.746-0.729,3.441-1.948c0.539-0.947,1.897-3.333-3.301-12.85l9.278-5.026l4.582,5.066l4.824-4.823l9.035,4.783 c-5.198,9.518-3.839,11.903-3.3,12.85c0.694,1.22,1.98,1.948,3.44,1.948c0.014,0,0.027,0,0.041,0 c-1.022,3.692-2.935,7.861-6.203,9.234l-3.917,1.645l1.285,1.568C27.389,40.191,25.511,40.992,23.994,42.01z"/><path fill="#00695c" d="M34.98,23.133c-0.106-2.328,1.353-6.065,4.248-11.204L27.582,5.294l0.151,1.564l-3.793,4.163 L24,23.133H34.98z"/><path fill="#00695c" d="M12.96,23.133c0.106-2.328-1.353-6.065-4.248-11.204l11.647-6.635l-0.151,1.564L24,11.022 l-4.705-2.913l-8.558,4.289L12.96,23.133z"/><path fill="#00695c" d="M12.975,23.327c-0.028,0.609-0.133,1.144-0.368,1.557c-0.522,0.917-1.46,1.443-2.572,1.443 c-0.466,0-0.927-0.072-1.372-0.192c0.958,4.189,3.079,9.64,7.146,11.349l2.745,1.152l-1.604,1.604 c2.349,0.686,5.176,1.735,7.084,3.191V23.327H12.975z"/><path fill="#e0f2f1" d="M40.972,39.341c0,0,0.727,4.718-2.803,4.718c-5.818,0-7.855-5.318-10.232-9.694l0.232,0.044 c0.141-0.047,6.307,1.157,6.307,1.157C32.92,21.277,16.856,22.58,16.856,15.428c0-0.635,1.152-1.446,2.591-1.446 c2.743,0,6.49,2.942,6.49,2.942l0.63,2.093l3.921,2.283l0.976-1.101l-0.945,0.142l-1.559-1.59c1.417-1.023,3.984-0.693,3.984-0.693 l-0.063,0.835c0.803-0.425,1.874-1.669,1.874-1.669L29.698,14.3l-2.861-0.203c0,0-2.122-1.81-3.273-2.938 c0,0-3.979-0.007-5.334,0.068c-1.373,0.076-3.569,5.022-3.493,6.339c0.076,1.316,1.012,3.696,1.189,3.949 c1.595,2.835,14.809,8.177,15.315,11.265c0,0-1.595-0.54-4.532-0.518c-1.654-2.581-3.71-5.112-7.227-5.112 c-1.226,0-2.919-0.021-2.919-0.021s-2.502,2.246-3.043,6.608c0,0,5.3,3.009,10.775,1.204c2.955,3.974,6,8.877,6.831,9.11 c0,0,10.839,3.758,10.839-3.758C41.965,40.294,41.585,39.521,40.972,39.341z M29.715,15.619l1.854,1.146l-0.791,0.413 c0,0-1.193-0.413-1.299-0.626C29.478,16.552,29.207,16.292,29.715,15.619z M16.101,29.975c0,0,4.877-0.234,6.388,2.665 C16.814,33.527,16.101,29.975,16.101,29.975z"/></svg>